            <svg class="bg-white border border-white rounded-sm w-6 overflow-visible fill-black hover:fill-yellow-400/80 active:fill-yellow-700" xmlns="http://www.w3.org/2000/svg" viewBox="0 0 283.46 283.46">
                <path class="" d="M.56,283.46C-1,279,1,275,2.13,270.87c.93-3.55,1.54-7.2,2.51-10.74a50.73,50.73,0,0,1,2.92-8.47A5.77,5.77,0,0,0,7.38,246c-2.95-5.59-2.53-11.55,1.42-16.43a12.12,12.12,0,0,0,3.1-9.06c-.28-3.41,1.92-5.8,5.22-6.58a5.78,5.78,0,0,0,1.53-.91c2.53-1.67,5.05-3.38,7.61-5,.49-.31,1.21-.24,1.71-.55,1.05-.63,2-1.41,3-2.09,2.07-1.38,4-3.07,6.26-4,4.18-1.73,8.53-3,12.8-4.5a8.69,8.69,0,0,0,1.82-.93c2.54-1.83,4.9-4,7.6-5.51,5.65-3.2,11.44-6.12,17.2-9.11,4.08-2.11,8.21-4.14,12.3-6.24a87.49,87.49,0,0,0,8-4.31c1.61-1.05,2.75.49,4.11.21.56-.11,1.4-.32,1.55-.71.7-1.86,1-3.91,1.83-5.67,1.17-2.4-.42-4-1.49-5.31-4.17-4.94-8.06-10-10.6-16.09-.58-1.41-.91-2.93-1.45-4.35a3.18,3.18,0,0,0-1-1.47c-3.43-2.26-4.54-5.92-5.63-9.63a6.75,6.75,0,0,0-1.4-2.88c-2.47-2.41-4.64-5-5.27-8.56-.51-2.88-.94-5.76-1.42-8.64a49.73,49.73,0,0,0-1-5.34,3.35,3.35,0,0,1,.9-3.74c1.68-1.56,2.39-3.39,1.38-5.69a6.51,6.51,0,0,1-.13-1.49c-.35-2.27-.69-4.54-1.08-6.8-.21-1.19-.46-2.38-.77-3.54-.52-1.94-1.08-3.85-1.65-5.77-2-6.83-1.47-13.81-1-20.77.27-4.32,1.69-8.44,2.49-12.63a22.34,22.34,0,0,1,7.5-12.79A7.82,7.82,0,0,0,84,27.62c1.35-2.24,2.64-4.52,4-6.74a5.39,5.39,0,0,1,1.52-1.49c3.58-2.18,7.14-4.4,10.81-6.41,1.47-.8,3.23-1,4.76-1.69a56.58,56.58,0,0,0,6.57-3.38c1.66-1,2.95-2.76,4.68-3.59,2.87-1.38,6-2.08,8.93-3.45,2.15-1,4.34-.46,6.49-.85.76-.14,1.67.56,2.5.88a12.87,12.87,0,0,0,2.69,1c2.67.38,5.39.49,8.06.91,1.59.25,3.11.91,4.68,1.31a24.11,24.11,0,0,0,4.49.89c.75,0,1.53-.67,2.3-1l-.14-.52a25.17,25.17,0,0,1,4.68.08,4.18,4.18,0,0,1,2.31,1.84c1.39,2.25,2.64,4.61,3.8,7,.63,1.31,1.83,2,2.57,3.35a33.09,33.09,0,0,1,2.82,7.75A2.18,2.18,0,0,0,175.18,25a12.84,12.84,0,0,1,2.32,0,4.91,4.91,0,0,0,1.95-4.81c0-.49.42-1,.64-1.56a6.09,6.09,0,0,1,1.37,1c1.54,1.92,1.25,4.24,1.18,6.49,0,.74-.07,1.47-.11,2.4.63,0,1.09-.1,1.54-.09s1.19-.12,1.38.14a14.68,14.68,0,0,1,2.46,3.91c.55,1.66,1.08,3.08,2.91,3.41,1.16.2,1.89.7,1.86,2,0,.22.21.45.3.68,1.33,3.59,1.24,3.7-2,5.42a24.18,24.18,0,0,0-3.56,2.52,2.11,2.11,0,0,0-.69,1.32,36.15,36.15,0,0,0-.32,7c.43,3.57-.88,6.56-2.51,9.36a7.69,7.69,0,0,0-1,4c-.07,2.3-.17,4.59-.22,6.89-.06,2.48.69,3.42,3,3.83,2.77.49,5.32,4,6,7.19,1.23,5.93.36,11.76-.25,17.61a16.2,16.2,0,0,1-3.75,9.23,11.73,11.73,0,0,0-1.44,2.77,8.6,8.6,0,0,1-7.17,5.07c-2,.25-2.75,1.6-3,3.26-.94,7.33-2,14.67-2.55,22-.4,5,2.21,8.88,5.39,12.45a22.49,22.49,0,0,1,3.35,5.54c2.34,5,6.25,7.13,9.92,11.06.83.89,0,0,1.74,1.69s2.28.17,4.3,1.16c2.38,1.18,5.19.46,7.67,1.39a18.26,18.26,0,0,0,3.18,1.34c1.16.17,2.34,2.46,2.06,1-.12-.66.73.7,1.36,1,4.17,2.22,8.34,4.5,12.64,6.44,1.89.86,4.05.57,5.62,2.77,1,1.42,3.43,1.69,5,2.76a6.27,6.27,0,0,1,2.18,2.79,1.58,1.58,0,0,0,1.68,1.26c7.83.26,14.81,3.23,21.31,7.54,2.33,1.54,4.44,3.44,6.74,5,1.39,1,3,1.64,4.42,2.53,3.13,1.92,4.15,5,4.42,8.58a58.6,58.6,0,0,0,.85,5.9c.09.52.54,1,.76,1.47a16.38,16.38,0,0,1,1.4,3.47,32.56,32.56,0,0,1,.6,6.3,4.48,4.48,0,0,1-1.22,3.1c-2.74,2.12-2.26,4.93-1.88,7.71.41,3,1,5.91,1.5,8.87q.83,5.28,1.51,10.59c.18,1.36.18,2.75.27,4.13s.19,2.72,1.65,3.45c.32.16.39.83.6,1.25s.78,1,.8,1.34c.13,2.57.12,1.73.12,3.34Z"></path>
            </svg>